<?xml version="1.0" encoding="UTF-8" standalone="no"?>
<svg xmlns:ffdec="https://www.free-decompiler.com/flash" xmlns:xlink="http://www.w3.org/1999/xlink" ffdec:objectType="shape" height="32.2px" width="545.6px" xmlns="http://www.w3.org/2000/svg">
  <g transform="matrix(1.0, 0.0, 0.0, 1.0, 282.55, 107.5)">
    <path d="M-282.5 -102.25 L-281.45 -101.0 -280.95 -101.0 -278.2 -77.25 Q-247.75 -78.2 -170.9 -77.75 -18.8 -80.0 135.5 -78.25 220.45 -78.85 259.8 -77.0 L262.6 -101.05 262.6 -101.3 263.05 -101.3 263.05 -101.95 Q221.95 -103.05 136.65 -102.65 -17.85 -104.1 -170.7 -102.75 -249.75 -103.5 -282.55 -102.3" fill="#faba27" fill-rule="evenodd" stroke="none"/>
    <path d="M-282.55 -102.3 Q-249.75 -103.5 -170.7 -102.75 -17.85 -104.1 136.65 -102.65 221.95 -103.05 263.05 -101.95 L263.05 -101.3 262.6 -101.3 262.6 -101.05 259.8 -77.0 Q220.45 -78.85 135.5 -78.25 -18.8 -80.0 -170.9 -77.75 -247.75 -78.2 -278.2 -77.25 L-280.95 -101.0 -281.45 -101.0 -282.5 -102.25" ffdec:has-small-stroke="true" ffdec:original-stroke-width="0.0" fill="none" stroke="#000000" stroke-linecap="round" stroke-linejoin="round" stroke-opacity="0.0" stroke-width="1.0"/>
  </g>
</svg>
